# xmcd
#
# Track frame offsets: 
#        150
#        14980
#        28250
#        50130
#        67030
#        85227
#        101744
#        119671
#        135461
#        151686
#        167933
#
# Disc length: 2445 seconds
#
# Revision: 0
# Processed by: cddbd v1.5.2PL0 Copyright (c) Steve Scherf et al.
# Submitted via: ExactAudioCopy v1.0b3
#
DISCID=a0098b0b
DTITLE=Sue Foley, Deborah Coleman, Roxanne Potvin - Time Bomb
DYEAR=2007
DGENRE=Blues
TTITLE0=Time Bomb (Instrumental)
TTITLE1=Hittin' On Nothin'
TTITLE2=So Far
TTITLE3=Talkin' Loud And Sayin' Nothin'
TTITLE4=Strong Enough To Hold You
TTITLE5=Show Me
TTITLE6=Motor City
TTITLE7=Get Up
TTITLE8=Two Moons Gone
TTITLE9=Don't Start The Car
TTITLE10=In The Basement
EXTD=
EXTT0=
EXTT1=
EXTT2=
EXTT3=
EXTT4=
EXTT5=
EXTT6=
EXTT7=
EXTT8=
EXTT9=
EXTT10=
PLAYORDER=
